<svg width="19" height="17" viewBox="0 0 19 17" fill="none" xmlns="http://www.w3.org/2000/svg">
<path d="M1.375 1.25586H2.53C2.955 1.25586 3.32583 1.54169 3.43583 1.95169L3.755 3.14919M3.755 3.14919C8.3972 3.0191 13.0349 3.53515 17.535 4.68253C16.8483 6.72753 16.0325 8.71419 15.0983 10.6309H5.75M3.755 3.14919L5.75 10.6309M5.75 10.6309C5.08696 10.6309 4.45107 10.8943 3.98223 11.3631C3.51339 11.8319 3.25 12.4678 3.25 13.1309H16.375M4.5 15.6309C4.5 15.7966 4.43415 15.9556 4.31694 16.0728C4.19973 16.19 4.04076 16.2559 3.875 16.2559C3.70924 16.2559 3.55027 16.19 3.43306 16.0728C3.31585 15.9556 3.25 15.7966 3.25 15.6309C3.25 15.4651 3.31585 15.3061 3.43306 15.1889C3.55027 15.0717 3.70924 15.0059 3.875 15.0059C4.04076 15.0059 4.19973 15.0717 4.31694 15.1889C4.43415 15.3061 4.5 15.4651 4.5 15.6309ZM15.125 15.6309C15.125 15.7966 15.0592 15.9556 14.9419 16.0728C14.8247 16.19 14.6658 16.2559 14.5 16.2559C14.3342 16.2559 14.1753 16.19 14.0581 16.0728C13.9408 15.9556 13.875 15.7966 13.875 15.6309C13.875 15.4651 13.9408 15.3061 14.0581 15.1889C14.1753 15.0717 14.3342 15.0059 14.5 15.0059C14.6658 15.0059 14.8247 15.0717 14.9419 15.1889C15.0592 15.3061 15.125 15.4651 15.125 15.6309Z" stroke="#1D2939" stroke-width="1.5" stroke-linecap="round" stroke-linejoin="round"/>
</svg>
