<svg width="58" height="58" viewBox="0 0 58 58" fill="none" xmlns="http://www.w3.org/2000/svg">
<path d="M45.3125 5.08008V7.11007C44.418 7.31119 43.5638 7.6615 42.7859 8.14664L41.3576 6.71845L38.7948 9.28321L40.2266 10.7132C39.7387 11.4894 39.3851 12.3425 39.1808 13.2363H37.1562V16.8613H39.1862C39.3866 17.7563 39.7365 18.611 40.2212 19.3896L38.7948 20.816L41.3576 23.379L42.7895 21.947C43.5657 22.435 44.4187 22.7886 45.3125 22.9929V25.0176H48.9375V22.9894C49.8326 22.7884 50.6874 22.4379 51.4659 21.9526L52.8924 23.379L55.4553 20.816L54.0234 19.3843C54.5113 18.608 54.8649 17.7551 55.0692 16.8613H57.0938V13.2363H55.0637C54.8632 12.342 54.5133 11.4877 54.0288 10.7096L55.4553 9.28321L52.8924 6.71845L51.4605 8.1504C50.6843 7.66246 49.8313 7.30886 48.9375 7.10454V5.08008H45.3125Z" fill="#76FD67"/>
<path d="M45.3125 5.08008V7.11007C44.7897 7.22761 44.2797 7.3963 43.79 7.61386L44.3192 8.14487C45.0978 7.65955 45.9526 7.30901 46.8477 7.10808V5.08008H45.3125ZM41.3576 6.71845L38.7966 9.28321L40.2248 10.7114C39.738 11.4884 39.3856 12.3421 39.1826 13.2363H40.716C40.919 12.3421 41.2713 11.4884 41.7582 10.7114L40.3299 9.28321L42.1261 7.48509L41.3576 6.71845ZM52.8924 6.71845L51.9879 7.6247C52.335 7.77634 52.6712 7.95204 52.9939 8.1504L53.6591 7.48509L52.8924 6.71845ZM37.1581 13.2363V16.8613H38.6914V13.2363H37.1562H37.1581ZM39.1862 16.8613C39.3866 17.7563 39.7365 18.611 40.2212 19.3896L38.7966 20.816L41.3576 23.379L42.1261 22.6106L40.3299 20.816L41.7564 19.3896C41.2711 18.6111 40.9206 17.7564 40.7196 16.8613H39.1862ZM44.3229 21.947L43.7954 22.4745C44.2835 22.6968 44.7922 22.8705 45.3143 22.9929V25.0176H46.8477V22.9929C45.9533 22.7888 45.0997 22.4352 44.3229 21.947ZM53.0011 21.947C52.678 22.1473 52.3413 22.3249 51.9934 22.4783L52.8924 23.3735L53.6591 22.6068L53.0011 21.947Z" fill="white"/>
<path d="M45.3125 5.08008V7.11007C44.418 7.31119 43.5638 7.6615 42.7859 8.14664L41.3576 6.71845L38.7948 9.28321L40.2266 10.7132C39.7387 11.4894 39.3851 12.3425 39.1808 13.2363H37.1562V16.8613H39.1862C39.3866 17.7563 39.7365 18.611 40.2212 19.3896L38.7948 20.816L41.3576 23.379L42.7895 21.947C43.5657 22.435 44.4187 22.7886 45.3125 22.9929V25.0176H48.9375V22.9894C49.8326 22.7884 50.6874 22.4379 51.4659 21.9526L52.8924 23.379L55.4553 20.816L54.0234 19.3843C54.5113 18.608 54.8649 17.7551 55.0692 16.8613H57.0938V13.2363H55.0637C54.8632 12.342 54.5133 11.4877 54.0288 10.7096L55.4553 9.28321L52.8924 6.71845L51.4605 8.1504C50.6843 7.66246 49.8313 7.30886 48.9375 7.10454V5.08008H45.3125Z" stroke="#12B400" stroke-linecap="round" stroke-linejoin="round"/>
<path d="M47.2695 12.2208C47.8499 12.0653 48.464 12.0922 49.0285 12.2978C49.593 12.5033 50.0806 12.8777 50.4251 13.37C50.7698 13.8621 50.9547 14.4484 50.9547 15.0493C50.9547 15.6501 50.7698 16.2362 50.4251 16.7284C50.0806 17.2206 49.593 17.595 49.0285 17.8005C48.464 18.0061 47.8499 18.033 47.2695 17.8775L48.0272 15.0502L47.2695 12.2208Z" fill="#43F230" stroke="#72F863" stroke-linecap="round" stroke-linejoin="round"/>
<path d="M47.1264 17.9757C48.743 17.9757 50.0536 16.6651 50.0536 15.0485C50.0536 13.4318 48.743 12.1211 47.1264 12.1211C45.5098 12.1211 44.1992 13.4318 44.1992 15.0485C44.1992 16.6651 45.5098 17.9757 47.1264 17.9757Z" fill="#43F230"/>
<path d="M45.0565 12.9791C45.5355 12.4998 46.1658 12.2016 46.8401 12.1352C47.5143 12.0688 48.1908 12.2383 48.754 12.6149C49.3169 12.9913 49.7319 13.5512 49.9282 14.1993C50.1245 14.8474 50.09 15.5435 49.8307 16.1691C49.5715 16.7947 49.1035 17.3112 48.5063 17.6305C47.9091 17.9497 47.2197 18.0521 46.5555 17.9201C45.8912 17.788 45.2933 17.4296 44.8637 16.9061C44.434 16.3826 44.1992 15.7263 44.1992 15.0491" stroke="#12B400" stroke-linecap="round" stroke-linejoin="round"/>
<path d="M19.9375 53.4705C30.4482 53.4705 38.9688 44.941 38.9688 34.4193C38.9688 23.8976 30.4482 15.3682 19.9375 15.3682C9.42683 15.3682 0.90625 23.8976 0.90625 34.4193C0.90625 44.941 9.42683 53.4705 19.9375 53.4705Z" fill="#1AFF01"/>
<path d="M19.9375 15.3662C17.438 15.3662 14.9629 15.859 12.6537 16.8166C10.3445 17.7741 8.24636 19.1776 6.4791 20.9469C4.71184 22.7162 3.31007 24.8166 2.35388 27.1282C1.39768 29.4398 0.905775 31.9173 0.90625 34.4192C0.90625 39.4714 2.91132 44.3167 6.48037 47.8892C10.0494 51.4616 14.8901 53.4686 19.9375 53.4686C20.4445 53.4665 20.9512 53.4441 21.4564 53.4015C16.6559 53.0629 12.1617 50.9166 8.87878 47.3945C5.59581 43.8724 3.7678 39.2362 3.76276 34.4192C3.76386 29.6272 5.56928 25.0116 8.81907 21.4927C12.0689 17.9738 16.5242 15.8102 21.2969 15.4333C20.8447 15.3947 20.3913 15.3723 19.9375 15.3662Z" fill="white"/>
<path d="M19.9368 15.3662C22.4364 15.3662 24.9114 15.859 27.2206 16.8165C29.5298 17.7741 31.628 19.1776 33.3953 20.9469C35.1625 22.7161 36.5643 24.8166 37.5205 27.1282C38.4767 29.4398 38.9686 31.9172 38.9681 34.4191C38.9681 39.4714 36.963 44.3165 33.394 47.889C29.8249 51.4614 24.9842 53.4685 19.9368 53.4685C19.4299 53.4664 18.9232 53.4441 18.418 53.4015C23.2185 53.0629 27.7126 50.9166 30.9956 47.3945C34.2785 43.8724 36.1066 39.2361 36.1116 34.4191C36.11 29.6274 34.3044 25.0123 31.0547 21.4938C27.8049 17.9753 23.3498 15.812 18.5775 15.435C19.0296 15.3965 19.4831 15.3723 19.9368 15.3662Z" fill="#1AFF00"/>
<path d="M33.3935 20.949C34.2545 21.8099 35.0338 22.7543 35.7171 23.7675M37.4734 27.0047C38.4657 29.3499 38.9743 31.8712 38.9688 34.4177C38.9687 44.9411 30.4482 53.4689 19.9375 53.4689C9.425 53.4689 0.90625 44.9411 0.90625 34.4195C0.90625 23.898 9.425 15.3701 19.9375 15.3701C22.4819 15.3684 25.0007 15.8768 27.3452 16.8653C28.4834 17.3475 29.5655 17.9367 30.5769 18.6236" stroke="#12B400" stroke-linecap="round" stroke-linejoin="round"/>
<path d="M19.9371 21.793C13.0007 21.793 7.32031 27.4787 7.32031 34.417C7.32031 41.357 13.0007 47.0445 19.9353 47.0445C26.8736 47.0445 32.5503 41.357 32.5503 34.417C32.5503 27.4787 26.8754 21.793 19.9371 21.793ZM19.9371 27.2305C20.8817 27.2257 21.8179 27.4083 22.6914 27.7679C23.5648 28.1275 24.3583 28.6568 25.0257 29.3253C25.6931 29.9937 26.2213 30.7879 26.5795 31.6619C26.9378 32.536 27.1191 33.4724 27.1128 34.417C27.1193 35.3619 26.9382 36.2987 26.5799 37.1731C26.2217 38.0476 25.6934 38.8423 25.0258 39.5111C24.3582 40.1799 23.5645 40.7096 22.6907 41.0694C21.8168 41.4292 20.8803 41.6118 19.9353 41.607C18.9905 41.6113 18.0541 41.4282 17.1805 41.0683C16.3069 40.7083 15.5134 40.1787 14.8459 39.51C14.1784 38.8413 13.6501 38.0469 13.2917 37.1727C12.9333 36.2984 12.7518 35.3618 12.7578 34.417C12.7518 33.4723 12.9333 32.5357 13.2917 31.6617C13.6502 30.7877 14.1785 29.9935 14.8461 29.3251C15.5137 28.6567 16.3072 28.1272 17.1808 27.7677C18.0544 27.4081 18.9924 27.2257 19.9371 27.2305Z" fill="#76FD67"/>
<path d="M3.19141 34.4187H6.23639M33.6414 34.4187H36.6864M19.9389 17.6531V20.7018M19.9389 48.134V51.1826M11.5651 19.8988L13.0876 22.5397M26.7901 46.2978L28.3127 48.9369M34.4425 26.0359L31.8053 27.5601M8.07246 41.2774L5.43527 42.7998M5.43527 26.0359L8.07246 27.5601M31.8053 41.2774L34.4425 42.7998M28.3127 19.9006L26.7901 22.5397M13.0876 46.2978L11.5651 48.9369M19.9389 14.6063V11.5576" stroke="#12B400"/>
<path d="M8.13798 15.8246L6.99609 13.8435L9.63328 12.3211L10.7752 14.3004M31.7367 15.8229L32.8786 13.8435L30.2414 12.3211L29.0995 14.3004M17.6536 9.27246H22.2211V12.3211H17.6536V9.27246Z" stroke="#12B400" stroke-linecap="round" stroke-linejoin="round"/>
<path d="M19.9361 36.7049C21.1974 36.7049 22.2199 35.6816 22.2199 34.4193C22.2199 33.157 21.1974 32.1338 19.9361 32.1338C18.6748 32.1338 17.6523 33.157 17.6523 34.4193C17.6523 35.6816 18.6748 36.7049 19.9361 36.7049Z" fill="#1AFF00"/>
<path d="M19.9383 21.7967C19.6556 21.7967 19.3765 21.8185 19.0992 21.8384C25.6495 22.2734 30.8804 27.7617 30.8804 34.419C30.8804 41.0763 25.6495 46.5682 19.0992 47.0032C19.3783 47.0213 19.6556 47.0467 19.9383 47.0467C26.8748 47.0467 32.5515 41.3572 32.5515 34.419C32.5515 27.4807 26.8748 21.7949 19.9365 21.7949L19.9383 21.7967ZM18.2636 27.2342C17.3191 27.2294 16.383 27.412 15.5095 27.7714C14.6361 28.1309 13.8426 28.6601 13.175 29.3283C12.5075 29.9965 11.9791 30.7906 11.6206 31.6644C11.262 32.5382 11.0803 33.4745 11.0861 34.419C11.0801 35.3638 11.2615 36.3004 11.62 37.1747C11.9784 38.0489 12.5067 38.8434 13.1742 39.5121C13.8417 40.1808 14.6352 40.7105 15.5088 41.0704C16.3824 41.4304 17.3187 41.6135 18.2636 41.6092C18.55 41.6092 18.8219 41.5548 19.0974 41.524C17.3498 41.3319 15.7352 40.4997 14.5648 39.1877C13.3944 37.8758 12.7512 36.1771 12.759 34.419C12.7512 32.6606 13.3948 30.9616 14.5655 29.6497C15.7362 28.3377 17.3513 27.5056 19.0992 27.314C18.8218 27.2831 18.55 27.2324 18.2636 27.2324V27.2342Z" fill="#6BFD5B"/>
</svg>
