<svg width="56" height="57" viewBox="0 0 56 57" fill="none" xmlns="http://www.w3.org/2000/svg">
<g filter="url(#filter0_d_8502_12186)">
<path d="M40.1914 55.5895C42.6939 55.5895 44.7227 53.56 44.7227 51.0565C44.7227 48.5529 42.6939 46.5234 40.1914 46.5234C37.6889 46.5234 35.6602 48.5529 35.6602 51.0565C35.6602 53.56 37.6889 55.5895 40.1914 55.5895Z" fill="#1AFF01"/>
<path d="M40.1914 46.5254C38.99 46.5254 37.8376 47.0027 36.9879 47.8525C36.1382 48.7022 35.6606 49.8547 35.6602 51.0566C35.6599 51.6521 35.7769 52.2417 36.0045 52.7919C36.2321 53.3421 36.5659 53.8421 36.9867 54.2633C37.4075 54.6844 37.907 55.0184 38.4569 55.2463C39.0068 55.4742 39.5962 55.5914 40.1914 55.5914C40.4923 55.5892 40.7922 55.5571 41.0867 55.4954C40.0655 55.2843 39.1484 54.7273 38.49 53.9183C37.8316 53.1094 37.4723 52.0981 37.4727 51.0549C37.474 50.0098 37.8363 48.9971 38.4982 48.1885C39.1601 47.38 40.0809 46.8252 41.1048 46.6179C40.8043 46.5562 40.4982 46.5252 40.1914 46.5254Z" fill="white"/>
<path d="M40.1908 46.5254C41.3922 46.5254 42.5446 47.0028 43.3943 47.8525C44.244 48.7022 44.7216 49.8547 44.722 51.0567C44.7223 51.6521 44.6053 52.2418 44.3777 52.7919C44.15 53.3421 43.8163 53.8421 43.3955 54.2633C42.9747 54.6844 42.4752 55.0184 41.9253 55.2463C41.3754 55.4742 40.786 55.5914 40.1908 55.5914C39.8899 55.5892 39.59 55.5571 39.2955 55.4954C40.3167 55.2843 41.2337 54.7273 41.8921 53.9183C42.5505 53.1094 42.9099 52.0981 42.9095 51.0549C42.9086 50.0095 42.5465 48.9964 41.8846 48.1875C41.2226 47.3785 40.3016 46.8235 39.2773 46.6161C39.578 46.5551 39.884 46.5246 40.1908 46.5254Z" fill="#1AFF00"/>
<path d="M40.1914 56.0936C42.9722 56.0936 45.2266 53.8384 45.2266 51.0566C45.2266 48.2747 42.9722 46.0195 40.1914 46.0195C37.4106 46.0195 35.1562 48.2747 35.1562 51.0566C35.1562 53.8384 37.4106 56.0936 40.1914 56.0936Z" stroke="#12B400"/>
<path d="M18.2225 37.9688H44.1195L50.6644 16.2188H13.0352" fill="#31F81B"/>
<path d="M47.446 16.2188L42.5069 33.2634C42.2006 34.3219 41.6224 35.25 40.5204 35.25H17.5742L18.223 37.9688H44.1182L50.6632 16.2188H47.446Z" fill="white"/>
<path d="M13.0312 16.2188L18.2223 37.9688H20.9464L17.1765 20.9239C16.9337 19.8219 17.6477 18.9375 18.7733 18.9375H47.3274C48.1774 18.9375 49.0131 19.4395 49.4771 20.159L50.6624 16.2188H13.0312Z" fill="#69F859"/>
<path d="M5.35156 10.7979H11.1987L17.6784 37.9692H44.1191L45.7558 32.5317L47.3925 27.0942L47.8238 25.6585M49.0273 21.6567L50.6641 16.2192H13.9428" stroke="#12B400" stroke-linecap="round" stroke-linejoin="round"/>
<path d="M11.1992 10.7607L19.6726 46.0392H40.6106" stroke="#12B400" stroke-linecap="round" stroke-linejoin="round"/>
<path d="M20.2539 55.5895C22.7564 55.5895 24.7852 53.56 24.7852 51.0565C24.7852 48.5529 22.7564 46.5234 20.2539 46.5234C17.7514 46.5234 15.7227 48.5529 15.7227 51.0565C15.7227 53.56 17.7514 55.5895 20.2539 55.5895Z" fill="#1AFF01"/>
<path d="M26.1953 21.6562H49.0328M29.8203 27.0938H47.9453M33.4453 32.5312H46.1328" stroke="#12B400"/>
<path d="M29.5339 0.8125V3.66887C28.2716 3.95227 27.0663 4.4468 25.9688 5.13157L23.9623 3.11972L20.3464 6.73565L22.3655 8.74927C21.6777 9.84391 21.1794 11.0468 20.8919 12.3072H18.0391V15.3125H24.8813C24.8722 15.1603 24.8359 15.0153 24.8359 14.8594C24.8359 10.8664 28.093 7.60938 32.0859 7.60938C36.0789 7.60938 39.3359 10.8664 39.3359 14.8594C39.3359 15.0153 39.2996 15.1603 39.2906 15.3125H46.1328V12.3072H43.2763C42.9929 11.045 42.4984 9.83978 41.8136 8.74219L43.8255 6.73565L40.2096 3.12149L38.1977 5.13887C37.1025 4.45085 35.899 3.95269 34.638 3.66533V0.8125H29.5339Z" fill="#53F042"/>
<path d="M20.2539 46.5254C19.0525 46.5254 17.9001 47.0027 17.0504 47.8525C16.2007 48.7022 15.7231 49.8547 15.7227 51.0566C15.7224 51.6521 15.8394 52.2417 16.067 52.7919C16.2946 53.3421 16.6284 53.8421 17.0492 54.2633C17.47 54.6844 17.9695 55.0184 18.5194 55.2463C19.0693 55.4742 19.6587 55.5914 20.2539 55.5914C20.5548 55.5892 20.8547 55.5571 21.1492 55.4954C20.128 55.2843 19.2109 54.7273 18.5525 53.9183C17.8941 53.1094 17.5348 52.0981 17.5352 51.0549C17.5365 50.0098 17.8988 48.9971 18.5607 48.1885C19.2226 47.38 20.1434 46.8252 21.1673 46.6179C20.8668 46.5562 20.5607 46.5252 20.2539 46.5254Z" fill="white"/>
<path d="M20.2533 46.5254C21.4547 46.5254 22.6071 47.0028 23.4568 47.8525C24.3065 48.7022 24.7841 49.8547 24.7845 51.0567C24.7848 51.6521 24.6678 52.2418 24.4402 52.7919C24.2125 53.3421 23.8788 53.8421 23.458 54.2633C23.0372 54.6844 22.5377 55.0184 21.9878 55.2463C21.4379 55.4742 20.8485 55.5914 20.2533 55.5914C19.9524 55.5892 19.6525 55.5571 19.358 55.4954C20.3792 55.2843 21.2962 54.7273 21.9546 53.9183C22.613 53.1094 22.9724 52.0981 22.972 51.0549C22.9711 50.0095 22.609 48.9964 21.9471 48.1875C21.2851 47.3785 20.3641 46.8235 19.3398 46.6161C19.6405 46.5551 19.9465 46.5246 20.2533 46.5254Z" fill="#1AFF00"/>
<path d="M20.2539 56.0936C23.0347 56.0936 25.2891 53.8384 25.2891 51.0566C25.2891 48.2747 23.0347 46.0195 20.2539 46.0195C17.4731 46.0195 15.2188 48.2747 15.2188 51.0566C15.2188 53.8384 17.4731 56.0936 20.2539 56.0936Z" stroke="#12B400"/>
<path d="M29.5339 0.8125V3.66898C28.711 3.85385 27.928 4.15843 27.1686 4.51549L27.7812 5.13168C28.8788 4.44691 30.0841 3.95238 31.3464 3.66898V0.8125H29.5339ZM23.9623 3.11983L20.3464 6.73576L22.3655 8.74761C21.6775 9.84281 21.1792 11.0463 20.8919 12.3073H22.7044C22.9919 11.0469 23.4902 9.84413 24.178 8.74949L22.1589 6.73576L24.8686 4.02608L23.9623 3.11983ZM40.2096 3.11983L38.8121 4.52268C39.2181 4.71481 39.6277 4.89973 40.0083 5.13898L41.1158 4.02608L40.2096 3.11983ZM33.8984 7.60938C33.5885 7.60938 33.2931 7.66373 32.9922 7.69998C36.5556 8.1531 39.3359 11.1764 39.3359 14.8594C39.3359 15.0153 39.2996 15.1603 39.2906 15.3125H41.1031C41.1121 15.1603 41.1484 15.0153 41.1484 14.8594C41.1484 10.8664 37.8914 7.60938 33.8984 7.60938ZM18.0391 12.3073V15.3125H19.8516V12.3073H18.0391Z" fill="white"/>
<path d="M24.8359 14.8594C24.8359 10.8664 28.093 7.60938 32.0859 7.60938C36.0789 7.60938 39.3359 10.8664 39.3359 14.8594M46.1328 15.3125V12.3072H43.2763C42.9929 11.045 42.4984 9.83978 41.8136 8.74219L43.8255 6.73565L40.2096 3.12149L38.1977 5.13887C37.1025 4.45085 35.899 3.95269 34.638 3.66533V0.8125H29.5339V3.66887C28.2716 3.95227 27.0663 4.4468 25.9688 5.13157L23.9623 3.11972L20.3464 6.73565L22.3655 8.74927C21.6777 9.84391 21.1794 11.0468 20.8919 12.3072H18.0391V15.3125" stroke="#12B400" stroke-linecap="square" stroke-linejoin="round"/>
</g>
<defs>
<filter id="filter0_d_8502_12186" x="0.851562" y="0.3125" width="54.3125" height="64.2812" filterUnits="userSpaceOnUse" color-interpolation-filters="sRGB">
<feFlood flood-opacity="0" result="BackgroundImageFix"/>
<feColorMatrix in="SourceAlpha" type="matrix" values="0 0 0 0 0 0 0 0 0 0 0 0 0 0 0 0 0 0 127 0" result="hardAlpha"/>
<feOffset dy="4"/>
<feGaussianBlur stdDeviation="2"/>
<feComposite in2="hardAlpha" operator="out"/>
<feColorMatrix type="matrix" values="0 0 0 0 0 0 0 0 0 0 0 0 0 0 0 0 0 0 0.25 0"/>
<feBlend mode="normal" in2="BackgroundImageFix" result="effect1_dropShadow_8502_12186"/>
<feBlend mode="normal" in="SourceGraphic" in2="effect1_dropShadow_8502_12186" result="shape"/>
</filter>
</defs>
</svg>
