<svg width="20" height="20" viewBox="0 0 20 20" fill="none" xmlns="http://www.w3.org/2000/svg">
<g clip-path="url(#clip0_8478_20987)">
<path d="M11.2759 6.96021C10.7989 7.30028 10.2151 7.50033 9.58464 7.50033C7.97381 7.50033 6.66797 6.19449 6.66797 4.58366C6.66797 2.97283 7.97381 1.66699 9.58464 1.66699C10.6288 1.66699 11.5448 2.21567 12.0601 3.04044M5.0013 16.7396H7.17654C7.46016 16.7396 7.74204 16.7734 8.01698 16.8409L10.3154 17.3994C10.8141 17.5209 11.3336 17.5327 11.8375 17.4348L14.3788 16.9404C15.0501 16.8096 15.6676 16.4882 16.1516 16.0174L17.9495 14.2684C18.463 13.7698 18.463 12.9607 17.9495 12.4612C17.4873 12.0115 16.7552 11.9609 16.2322 12.3423L14.1368 13.871C13.8367 14.0904 13.4716 14.2085 13.096 14.2085H11.0726L12.3605 14.2085C13.0865 14.2085 13.6745 13.6364 13.6745 12.9303V12.6746C13.6745 12.0882 13.2643 11.577 12.6797 11.4352L10.6918 10.9518C10.3683 10.8733 10.037 10.8337 9.70392 10.8337C8.89991 10.8337 7.44455 11.4993 7.44455 11.4993L5.0013 12.5211M16.668 5.41699C16.668 7.02782 15.3621 8.33366 13.7513 8.33366C12.1405 8.33366 10.8346 7.02782 10.8346 5.41699C10.8346 3.80616 12.1405 2.50033 13.7513 2.50033C15.3621 2.50033 16.668 3.80616 16.668 5.41699ZM1.66797 12.167L1.66797 17.0003C1.66797 17.467 1.66797 17.7004 1.7588 17.8787C1.83869 18.0355 1.96617 18.1629 2.12298 18.2428C2.30124 18.3337 2.53459 18.3337 3.0013 18.3337H3.66797C4.13468 18.3337 4.36803 18.3337 4.54629 18.2428C4.7031 18.1629 4.83058 18.0355 4.91047 17.8787C5.0013 17.7004 5.0013 17.467 5.0013 17.0003V12.167C5.0013 11.7003 5.0013 11.4669 4.91047 11.2887C4.83058 11.1319 4.7031 11.0044 4.54629 10.9245C4.36803 10.8337 4.13468 10.8337 3.66797 10.8337L3.0013 10.8337C2.53459 10.8337 2.30124 10.8337 2.12298 10.9245C1.96618 11.0044 1.83869 11.1319 1.7588 11.2887C1.66797 11.4669 1.66797 11.7003 1.66797 12.167Z" stroke="#12B400" stroke-width="1.66667" stroke-linecap="round" stroke-linejoin="round"/>
</g>
<defs>
<clipPath id="clip0_8478_20987">
<rect width="20" height="20" fill="white"/>
</clipPath>
</defs>
</svg>
