<svg width="58" height="58" viewBox="0 0 58 58" fill="none" xmlns="http://www.w3.org/2000/svg">
<g clip-path="url(#clip0_8502_19316)">
<path d="M56.1222 45.2494L41.9756 31.0937C41.7504 30.8676 41.4828 30.6881 41.1881 30.5657C40.8934 30.4432 40.5774 30.3802 40.2583 30.3802C39.9391 30.3802 39.6231 30.4432 39.3284 30.5657C39.0337 30.6881 38.7661 30.8676 38.5409 31.0937L37.9428 31.6919L35.2875 29.0366L43.7337 20.5994C47.3406 21.6959 51.3009 20.7353 53.9744 18.0619C56.7475 15.2978 57.69 11.2559 56.4303 7.53124C56.3833 7.38914 56.3001 7.26175 56.1888 7.16163C56.0776 7.06151 55.9422 6.99212 55.7959 6.9603C55.6519 6.92568 55.5015 6.92831 55.3588 6.96795C55.2161 7.00759 55.0858 7.08293 54.9803 7.18686L49.6244 12.5428L46.2984 11.2016L44.9572 7.87561L50.3131 2.51968C50.5216 2.31124 50.6122 1.99405 50.5397 1.70405C50.5079 1.55781 50.4385 1.42238 50.3383 1.31114C50.2382 1.19989 50.1108 1.11667 49.9687 1.06968C46.244 -0.199073 42.2022 0.734364 39.429 3.51655C36.7647 6.18093 35.8131 10.1412 36.9006 13.7481L28.4544 22.1944L20.6697 14.4097L19.2197 9.98718C19.148 9.77974 19.003 9.60568 18.8119 9.4978L10.574 4.87593C10.4076 4.77998 10.2139 4.74215 10.0236 4.7684C9.83326 4.79465 9.65707 4.8835 9.5228 5.02093L6.8403 7.65811C6.55936 7.93905 6.50499 8.37405 6.70436 8.70936L11.3262 16.9472C11.4346 17.1379 11.6085 17.2828 11.8156 17.355L16.2381 18.805L24.0228 26.5987L13.2294 37.3922C9.62249 36.3047 5.65311 37.2562 2.98874 39.9206C0.224674 42.6937 -0.717826 46.7265 0.541861 50.4603C0.641549 50.7503 0.877174 50.9587 1.17624 51.0312C1.4753 51.1037 1.78342 51.0131 1.99186 50.7956L7.3478 45.4397L10.6737 46.79L12.015 50.1159L6.65905 55.4628C6.55492 55.5701 6.47957 55.7019 6.43996 55.8461C6.40036 55.9902 6.39779 56.1421 6.43249 56.2875C6.50499 56.5865 6.71342 56.8222 7.00342 56.9219C8.09092 57.2934 9.21467 57.4747 10.3203 57.4747C12.9847 57.4747 15.5675 56.4325 17.534 54.4659C20.1984 51.7925 21.159 47.8322 20.0625 44.2253L30.8559 33.4319L33.5294 36.0962L32.9312 36.6944C32.705 36.9204 32.5255 37.1888 32.4031 37.4843C32.2807 37.7797 32.2176 38.0964 32.2176 38.4162C32.2176 38.7361 32.2807 39.0527 32.4031 39.3482C32.5255 39.6436 32.705 39.9121 32.9312 40.1381L47.0778 54.2847C47.6699 54.8811 48.3745 55.3541 49.1508 55.6761C49.9271 55.9981 50.7596 56.1628 51.6 56.1606C53.3037 56.1606 54.9169 55.4991 56.1222 54.2847C58.6234 51.7925 58.6234 47.7325 56.1222 45.2494ZM17.3256 17.4184C17.2294 17.322 17.1112 17.2505 16.9812 17.21L12.6856 15.7962L8.55311 8.42843L10.2659 6.71561L17.6247 10.8572L19.0294 15.1437C19.0747 15.2797 19.1562 15.3884 19.2469 15.4972L27.1856 23.4359L25.2644 25.3572L17.3256 17.4184ZM18.4584 43.3825C18.2137 43.6272 18.1322 43.9897 18.259 44.3069C19.3919 47.4062 18.6306 50.9134 16.3106 53.2334C15.3717 54.1798 14.2218 54.89 12.9552 55.3059C11.6886 55.7218 10.3415 55.8315 9.02436 55.6259L13.7006 50.9497C13.8222 50.8273 13.9051 50.6717 13.939 50.5025C13.9728 50.3333 13.9561 50.1579 13.8909 49.9981L12.1872 45.784C12.0875 45.5665 11.9244 45.3853 11.6978 45.3037L7.4928 43.6C7.33302 43.5348 7.15759 43.5181 6.98838 43.5519C6.81917 43.5858 6.66366 43.6687 6.54124 43.7903L1.86499 48.4665C1.43905 45.8112 2.29999 43.1197 4.24842 41.1712C6.55936 38.8512 10.0575 38.09 13.1659 39.2319C13.4922 39.3497 13.8547 39.2681 14.0903 39.0234L25.8806 27.2422C25.8806 27.2331 25.8897 27.2331 25.8987 27.2331C25.8987 27.224 25.8987 27.215 25.9078 27.215L29.0525 24.0703C29.0525 24.0703 29.0616 24.0612 29.0706 24.0612C29.0706 24.0522 29.0706 24.0431 29.0797 24.0431L38.5137 14.6C38.7494 14.3644 38.8309 14.0019 38.7131 13.6756C37.5803 10.5762 38.3325 7.06905 40.6525 4.75811C41.5922 3.81051 42.7439 3.10013 44.0124 2.68569C45.281 2.27125 46.6299 2.16464 47.9478 2.37468L43.2716 7.05093C43.1499 7.17335 43.067 7.32886 43.0332 7.49807C42.9994 7.66728 43.0161 7.84271 43.0812 8.00249L44.785 12.2075C44.8847 12.425 45.0478 12.6062 45.2744 12.6969L49.4794 14.3916C49.8147 14.5366 50.1862 14.455 50.4309 14.2012L55.1072 9.53405C55.5241 12.1803 54.6722 14.8719 52.7147 16.8203C50.3947 19.1403 46.8875 19.9016 43.7881 18.7597C43.6302 18.7025 43.4593 18.6917 43.2954 18.7287C43.1316 18.7656 42.9818 18.8487 42.8637 18.9681L18.4584 43.3825ZM32.1247 32.2084L34.0459 30.2872L36.7012 32.9334L34.7709 34.8637L32.1247 32.2084ZM54.8806 53.0522C54.45 53.4826 53.9384 53.8236 53.3753 54.0553C52.8122 54.2871 52.2089 54.4051 51.6 54.4025C50.9911 54.4051 50.3877 54.2871 49.8247 54.0553C49.2616 53.8236 48.75 53.4826 48.3194 53.0522L34.1728 38.8965C34.0464 38.7686 33.9755 38.5961 33.9755 38.4162C33.9755 38.2364 34.0464 38.0638 34.1728 37.9359L35.3872 36.7216H35.3962V36.7125L38.559 33.5497H38.5681L39.7825 32.3353C39.8446 32.2721 39.9186 32.2219 40.0003 32.1877C40.082 32.1534 40.1697 32.1358 40.2583 32.1358C40.3469 32.1358 40.4345 32.1534 40.5162 32.1877C40.5979 32.2219 40.672 32.2721 40.7341 32.3353L54.8806 46.4819C56.6931 48.2944 56.6931 51.2397 54.8806 53.0522Z" fill="#12B400"/>
<path d="M52.7181 16.82C50.3981 19.14 46.8909 19.9012 43.7915 18.7593C43.6336 18.7022 43.4626 18.6914 43.2988 18.7284C43.135 18.7653 42.9852 18.8484 42.8671 18.9678L18.4618 43.3822C18.2171 43.6268 18.1356 43.9893 18.2624 44.3065C19.3952 47.4059 18.634 50.9131 16.314 53.2331C15.3751 54.1794 14.2252 54.8897 12.9586 55.3056C11.692 55.7214 10.3449 55.8311 9.02775 55.6256L13.704 50.9493C13.8256 50.8269 13.9085 50.6714 13.9424 50.5022C13.9762 50.333 13.9595 50.1576 13.8943 49.9978L12.1906 45.7837C12.0909 45.5662 11.9277 45.385 11.7012 45.3034L7.49619 43.5997C7.33641 43.5345 7.16098 43.5178 6.99177 43.5516C6.82255 43.5855 6.66705 43.6684 6.54462 43.79L1.86837 48.4662C1.44244 45.8109 2.30337 43.1193 4.25181 41.1709C6.56275 38.8509 10.0609 38.0897 13.1693 39.2315C13.4956 39.3493 13.8581 39.2678 14.0937 39.0231L25.884 27.2418C25.884 27.2328 25.8931 27.2328 25.9021 27.2328C25.9021 27.2237 25.9021 27.2147 25.9112 27.2147L29.0559 24.07C29.0559 24.07 29.0649 24.0609 29.074 24.0609C29.074 24.0518 29.074 24.0428 29.0831 24.0428L38.5171 14.5997C38.7528 14.364 38.8343 14.0015 38.7165 13.6753C37.5837 10.5759 38.3359 7.06872 40.6559 4.75778C41.5956 3.81018 42.7473 3.0998 44.0158 2.68536C45.2843 2.27092 46.6333 2.16431 47.9512 2.37435L43.2749 7.0506C43.1533 7.17302 43.0704 7.32853 43.0366 7.49774C43.0027 7.66695 43.0194 7.84238 43.0846 8.00216L44.7884 12.2072C44.8881 12.4247 45.0512 12.6059 45.2777 12.6965L49.4827 14.3912C49.8181 14.5362 50.1896 14.4547 50.4343 14.2009L55.1106 9.53372C55.5274 12.18 54.6756 14.8806 52.7181 16.82Z" fill="#6FF161"/>
<path d="M52.7177 16.8199C50.3977 19.1399 46.8905 19.9011 43.7911 18.7593C43.6332 18.7021 43.4622 18.6913 43.2984 18.7283C43.1346 18.7652 42.9848 18.8483 42.8667 18.9677L18.4614 43.3821C18.2167 43.6268 18.1352 43.9893 18.262 44.3064C19.3948 47.4058 18.6336 50.913 16.3136 53.233C15.3747 54.1793 14.2247 54.8896 12.9582 55.3055C11.6916 55.7214 10.3445 55.831 9.02734 55.6255L10.3777 54.2752C12.1179 53.9799 13.7217 53.1463 14.9633 51.8918C17.2833 49.5718 18.0445 46.0646 16.9117 42.9652C16.8508 42.8085 16.8372 42.6374 16.8726 42.4731C16.9081 42.3087 16.991 42.1584 17.1111 42.0408L41.5164 17.6355C41.6345 17.5161 41.7843 17.433 41.9481 17.3961C42.1119 17.3591 42.2829 17.3699 42.4408 17.4271C45.5402 18.5689 49.0473 17.8077 51.3673 15.4877C52.6202 14.2448 53.4535 12.6416 53.7508 10.9021L55.1011 9.55176C55.527 12.1799 54.6752 14.8805 52.7177 16.8199Z" fill="#68E25A"/>
<path d="M54.8815 46.4814L40.7349 32.3439C40.6721 32.2805 40.5973 32.2301 40.5148 32.1959C40.4324 32.1617 40.3439 32.1442 40.2546 32.1445C40.0915 32.1445 39.9102 32.217 39.7834 32.3439L38.569 33.5583H38.5599L35.3971 36.7211V36.7302H35.388L34.1737 37.9445C33.9109 38.2073 33.9109 38.6423 34.1737 38.9052L48.3293 53.0608C48.7599 53.4912 49.2715 53.8322 49.8346 54.0639C50.3977 54.2957 51.001 54.4137 51.6099 54.4111C52.8515 54.4111 54.0205 53.9308 54.8905 53.0608C56.694 51.2392 56.694 48.2939 54.8815 46.4814ZM52.0177 50.0973C51.8546 50.2695 51.619 50.3511 51.3924 50.3511C51.1749 50.3511 50.9484 50.2695 50.7762 50.0973L39.9284 39.2495C39.8465 39.1682 39.7816 39.0715 39.7373 38.9649C39.693 38.8584 39.6702 38.7441 39.6702 38.6288C39.6702 38.5134 39.693 38.3991 39.7373 38.2926C39.7816 38.1861 39.8465 38.0893 39.9284 38.008C40.2727 37.6636 40.8255 37.6636 41.1699 38.008L52.0177 48.8558C52.3621 49.2002 52.3621 49.753 52.0177 50.0973Z" fill="#5DE54E"/>
<path d="M36.7028 32.9236L34.7725 34.863L32.1263 32.2077L34.0475 30.2864L36.7028 32.9236ZM27.1962 23.4261L25.275 25.3473L17.3362 17.4086C17.2401 17.3122 17.1219 17.2407 16.9919 17.2002L12.6872 15.7955L8.55469 8.42766L10.2675 6.71484L17.6263 10.8564L19.0309 15.143C19.0762 15.2789 19.1578 15.3877 19.2484 15.4964L27.1962 23.4261Z" fill="#89FF7C"/>
<path d="M55.362 52.4813C55.217 52.6807 55.0539 52.8801 54.8817 53.0523C54.451 53.4827 53.9394 53.8237 53.3764 54.0554C52.8133 54.2872 52.2099 54.4052 51.601 54.4026C50.9922 54.4052 50.3888 54.2872 49.8257 54.0554C49.2627 53.8237 48.7511 53.4827 48.3204 53.0523L34.1739 38.8966C34.0475 38.7687 33.9766 38.5962 33.9766 38.4163C33.9766 38.2365 34.0475 38.0639 34.1739 37.936L35.2251 36.8848C34.9623 37.1476 34.9623 37.5826 35.2251 37.8454L49.3807 52.001C49.8114 52.4315 50.323 52.7724 50.886 53.0042C51.4491 53.2359 52.0525 53.3539 52.6614 53.3513C53.6401 53.3513 54.5826 53.0432 55.362 52.4813Z" fill="#46D936"/>
<path d="M35.8238 33.8032L34.7725 34.8635L32.1263 32.2082L33.1775 31.157L35.8238 33.8032ZM26.3263 24.2966L25.275 25.3479L17.3362 17.4091C17.2401 17.3127 17.1219 17.2412 16.9919 17.2007L12.6872 15.796L8.55469 8.4282L9.60594 7.37695L13.7384 14.7357L18.0341 16.1495C18.17 16.1948 18.2788 16.2673 18.3784 16.3579L26.3263 24.2966Z" fill="#6AEB5C"/>
<path d="M52.0194 50.0977C51.8563 50.2698 51.6207 50.3514 51.3941 50.3514C51.1766 50.3514 50.95 50.2698 50.7779 50.0977L39.93 39.2498C39.8482 39.1685 39.7833 39.0718 39.739 38.9652C39.6947 38.8587 39.6719 38.7444 39.6719 38.6291C39.6719 38.5137 39.6947 38.3994 39.739 38.2929C39.7833 38.1864 39.8482 38.0896 39.93 38.0083C40.2744 37.6639 40.8272 37.6639 41.1716 38.0083L52.0194 48.8561C52.3638 49.2005 52.3638 49.7533 52.0194 50.0977Z" fill="#12B400"/>
</g>
<defs>
<clipPath id="clip0_8502_19316">
<rect width="58" height="58" fill="white"/>
</clipPath>
</defs>
</svg>
